<svg width="24" height="24" viewBox="0 0 24 24" fill="none" xmlns="http://www.w3.org/2000/svg">
<path fill-rule="evenodd" clip-rule="evenodd" d="M19.875 17.6932C20.289 17.6932 20.625 18.0293 20.625 18.4432C20.625 18.8583 20.289 19.1932 19.875 19.1932H10.125C9.711 19.1932 9.375 18.8583 9.375 18.4432C9.375 18.0293 9.711 17.6932 10.125 17.6932H19.875ZM6.125 17.6932C6.539 17.6932 6.875 18.0293 6.875 18.4432C6.875 18.8583 6.539 19.1932 6.125 19.1932H4.125C3.711 19.1932 3.375 18.8583 3.375 18.4432C3.375 18.0293 3.711 17.6932 4.125 17.6932H6.125ZM19.875 11.2499C20.289 11.2499 20.625 11.586 20.625 11.9999C20.625 12.4149 20.289 12.7499 19.875 12.7499H10.125C9.711 12.7499 9.375 12.4149 9.375 11.9999C9.375 11.586 9.711 11.2499 10.125 11.2499H19.875ZM6.125 11.2499C6.539 11.2499 6.875 11.586 6.875 11.9999C6.875 12.4149 6.539 12.7499 6.125 12.7499H4.125C3.711 12.7499 3.375 12.4149 3.375 11.9999C3.375 11.586 3.711 11.2499 4.125 11.2499H6.125ZM19.875 4.80664C20.289 4.80664 20.625 5.14264 20.625 5.55664C20.625 5.97064 20.289 6.30664 19.875 6.30664H10.125C9.711 6.30664 9.375 5.97064 9.375 5.55664C9.375 5.14264 9.711 4.80664 10.125 4.80664H19.875ZM6.125 4.80664C6.539 4.80664 6.875 5.14264 6.875 5.55664C6.875 5.97064 6.539 6.30664 6.125 6.30664H4.125C3.711 6.30664 3.375 5.97064 3.375 5.55664C3.375 5.14264 3.711 4.80664 4.125 4.80664H6.125Z" fill="#333333"/>
</svg>
