<svg width="36" height="36" viewBox="0 0 36 36" fill="none" xmlns="http://www.w3.org/2000/svg">
<path d="M21.5625 8.85625C21.5625 6.69198 19.9675 4.9375 18 4.9375C16.0325 4.9375 14.4375 6.69198 14.4375 8.85625V16.6938C14.4375 18.858 16.0325 20.6125 18 20.6125C19.9675 20.6125 21.5625 18.858 21.5625 16.6938V8.85625Z" stroke="#333333" stroke-width="1.78125"/>
<path d="M9.6875 6.24375V8.85625M4.9375 4.9375V10.1625M26.3125 6.24375V8.85625M31.0625 4.9375V10.1625M9.6875 15.3875V16.6937C9.6875 19.1188 10.5633 21.4446 12.1222 23.1594C13.6811 24.8741 15.7954 25.8375 18 25.8375M18 25.8375C20.2046 25.8375 22.3189 24.8741 23.8778 23.1594C25.4367 21.4446 26.3125 19.1188 26.3125 16.6937V15.3875M18 25.8375V31.0625M18 31.0625H14.4375M18 31.0625H21.5625" stroke="#333333" stroke-width="1.78125" stroke-linecap="round" stroke-linejoin="round"/>
</svg>
