<svg width="39" height="39" viewBox="0 0 39 39" fill="none" xmlns="http://www.w3.org/2000/svg">
<rect x="6.72266" width="32.2759" height="32.2759" rx="2.68966" fill="#B4B3B3"/>
<path d="M24.993 10.6743C24.993 9.38069 24.0397 8.33203 22.8637 8.33203C21.6877 8.33203 20.7344 9.38069 20.7344 10.6743V15.3588C20.7344 16.6523 21.6877 17.701 22.8637 17.701C24.0397 17.701 24.993 16.6523 24.993 15.3588V10.6743Z" stroke="white" stroke-width="1.06466"/>
<path d="M17.8945 14.5781V15.3589C17.8945 16.8083 18.418 18.1984 19.3497 19.2234C20.2815 20.2483 21.5452 20.8241 22.8629 20.8241M22.8629 20.8241C24.1806 20.8241 25.4444 20.2483 26.3761 19.2234C27.3079 18.1984 27.8313 16.8083 27.8313 15.3589V14.5781M22.8629 20.8241V23.9471M22.8629 23.9471H20.7336M22.8629 23.9471H24.9922" stroke="white" stroke-width="1.06466" stroke-linecap="round" stroke-linejoin="round"/>
<path d="M27.5695 32.2773H18.8281L23.1988 39.0015L27.5695 32.2773Z" fill="#B4B3B3"/>
<path d="M6.72461 0L6.44922 0.0136719C5.09308 0.151467 4.03526 1.29698 4.03516 2.68945V29.5859C4.03516 31.0714 5.23915 32.2754 6.72461 32.2754H2.68945C1.20409 32.2753 0 31.0713 0 29.5859V2.68945C0.000108909 1.20416 1.20416 0.000109385 2.68945 0H6.72461Z" fill="#B4B3B3"/>
</svg>
