<svg width="36" height="36" viewBox="0 0 36 36" fill="none" xmlns="http://www.w3.org/2000/svg">
<path d="M12.1924 7.56738V7.56836C13.1697 7.64829 13.9451 8.47563 13.9453 9.4707V26.5273C13.9453 27.5776 13.0853 28.4384 12.0361 28.4385C10.9851 28.4385 10.125 27.5774 10.125 26.5273V9.4707C10.1252 8.42349 10.9833 7.56305 12.0332 7.56152L12.1924 7.56738ZM24.1191 7.56738V7.56836C25.0971 7.64831 25.8739 8.47616 25.874 9.4707V26.5273C25.874 27.5771 25.0126 28.4384 23.9629 28.4385C22.9137 28.4385 22.0537 27.5777 22.0537 26.5273V9.4707C22.0539 8.42323 22.9118 7.56307 23.96 7.56152L24.1191 7.56738Z" stroke="white" stroke-width="1.5"/>
</svg>
