<svg width="32" height="39" viewBox="0 0 32 39" fill="none" xmlns="http://www.w3.org/2000/svg">
<rect y="0.167969" width="32" height="32" rx="2.66667" fill="#333333"/>
<path d="M18.1128 10.748C18.1128 9.46548 17.1677 8.42578 16.0017 8.42578C14.8358 8.42578 13.8906 9.46548 13.8906 10.748V15.3924C13.8906 16.675 14.8358 17.7147 16.0017 17.7147C17.1677 17.7147 18.1128 16.675 18.1128 15.3924V10.748Z" stroke="white" stroke-width="1.05556"/>
<path d="M11.0742 14.6172V15.3913C11.0742 16.8283 11.5932 18.2066 12.517 19.2227C13.4408 20.2389 14.6937 20.8098 16.0001 20.8098M16.0001 20.8098C17.3066 20.8098 18.5595 20.2389 19.4833 19.2227C20.4071 18.2066 20.9261 16.8283 20.9261 15.3913V14.6172M16.0001 20.8098V23.9061M16.0001 23.9061H13.889M16.0001 23.9061H18.1113" stroke="white" stroke-width="1.05556" stroke-linecap="round" stroke-linejoin="round"/>
<path d="M20 32.0391H11L15.5 38.0391L20 32.0391Z" fill="#333333"/>
</svg>
