<svg width="24" height="24" viewBox="0 0 24 24" fill="none" xmlns="http://www.w3.org/2000/svg">
<path d="M14.375 5.90449C14.375 4.46165 13.3117 3.29199 12 3.29199C10.6883 3.29199 9.625 4.46165 9.625 5.90449V11.1295C9.625 12.5723 10.6883 13.742 12 13.742C13.3117 13.742 14.375 12.5723 14.375 11.1295V5.90449Z" stroke="#333333" stroke-width="1.1875"/>
<path d="M6.45768 4.16283V5.90449M3.29102 3.29199V6.77533M17.541 4.16283V5.90449M20.7077 3.29199V6.77533M6.45768 10.2587V11.1295C6.45768 12.7462 7.04153 14.2967 8.0808 15.4399C9.12006 16.5831 10.5296 17.2253 11.9993 17.2253M11.9993 17.2253C13.4691 17.2253 14.8786 16.5831 15.9179 15.4399C16.9572 14.2967 17.541 12.7462 17.541 11.1295V10.2587M11.9993 17.2253V20.7087M11.9993 20.7087H9.62435M11.9993 20.7087H14.3743" stroke="#333333" stroke-width="1.1875" stroke-linecap="round" stroke-linejoin="round"/>
</svg>
