<svg width="64" height="64" viewBox="0 0 64 64" fill="none" xmlns="http://www.w3.org/2000/svg">
<rect x="0.888889" y="0.888889" width="62.2222" height="62.2222" rx="31.1111" fill="white"/>
<rect x="0.888889" y="0.888889" width="62.2222" height="62.2222" rx="31.1111" stroke="#E5E5E5" stroke-width="1.77778"/>
<path d="M39.3404 26.0688C42.8002 29.3446 42.8002 34.6549 39.3404 37.9307M43.3947 20.6123C50.1721 26.9001 50.1721 37.0994 43.3947 43.3872M32.0693 18.9562L23.3617 26.3011H18.3683C16.795 26.3011 15.5215 27.5765 15.5215 29.148V34.8417C15.5215 36.4131 16.795 37.6885 18.3683 37.6885H23.356L32.0693 45.0429C33.2346 46.0886 34.1855 45.6654 34.1855 44.0996V19.9014C34.1855 18.3356 33.2346 17.9105 32.0693 18.9562Z" stroke="#B7B7B7" stroke-width="2.84685" stroke-linecap="round" stroke-linejoin="round"/>
</svg>
