<svg preserveAspectRatio="none" width="100%" height="100%" overflow="visible" style="display: block;" viewBox="0 0 171.162 36" fill="none" xmlns="http://www.w3.org/2000/svg">
<g id="logo 1" clip-path="url(#clip0_0_1030)">
<path id="Vector" d="M171.175 -4.86374e-05H88.3812V36H171.175V-4.86374e-05Z" fill="var(--fill-0, black)"/>
<path id="Vector_2" d="M81.5365 10.1079V7.36509H65.2952V28.508H81.5365V25.7651H68.2793V18.9333H80.3428V16.2032H68.2793V10.1079H81.5365Z" fill="var(--fill-0, black)"/>
<path id="Vector_3" d="M9.35882 7.36509H8.48327e-05V28.508H9.35882C15.035 28.3429 18.6795 24.2286 18.6795 17.9429C18.6795 11.6572 15.035 7.54287 9.35882 7.37779M2.97151 10.1079H8.92707C13.0414 10.1079 15.708 13.181 15.708 17.9429C15.708 22.7048 13.0414 25.7778 8.92707 25.7778H2.97151V10.1079Z" fill="var(--fill-0, black)"/>
<path id="Vector_4" d="M31.0477 6.73017C24.7239 6.73017 20.3175 11.3143 20.3175 17.8921C20.3175 24.4699 24.7366 29.054 31.0477 29.054C37.3588 29.054 41.7779 24.4699 41.7779 17.8921C41.7779 11.3143 37.3588 6.73017 31.0477 6.73017ZM38.6414 17.8921C38.6414 22.8318 35.5175 26.2857 31.0604 26.2857C26.6033 26.2857 23.4794 22.8318 23.4794 17.8921C23.4794 12.9524 26.6033 9.49843 31.0604 9.49843C35.5175 9.49843 38.6414 12.9524 38.6414 17.8921Z" fill="var(--fill-0, black)"/>
<path id="Vector_5" d="M59.7331 17.181C61.1807 16.2032 62.0315 14.5905 62.0315 12.7619C62.0315 9.62541 59.6315 7.36509 56.3172 7.36509H44.1395V28.508H56.9649C60.5077 28.3429 62.9585 25.9175 62.9585 22.5016C62.9585 20.1143 61.7649 18.1587 59.7204 17.181M59.949 22.3492C59.949 24.3937 58.5776 25.7651 56.5331 25.7651H47.1236V18.9333H56.5331C58.5776 18.9333 59.949 20.3048 59.949 22.3492ZM47.1236 16.2032V10.1079H55.949C57.7141 10.1079 58.9966 11.3905 58.9966 13.1556C58.9966 14.9206 57.7141 16.2032 55.949 16.2032H47.1236Z" fill="var(--fill-0, black)"/>
<path id="Vector_6" d="M108.724 28.3809C114.591 28.2285 118.375 24.1396 118.375 17.9936C118.375 11.8476 114.591 7.75867 108.724 7.60629H108.521H98.3495V28.4063H108.724V28.3809ZM103.632 23.3777V12.6095H108.089C111.238 12.6095 113.054 14.5777 113.054 17.9936C113.054 21.4095 111.251 23.3777 108.089 23.3777H103.632Z" fill="var(--fill-0, #EC1B23)"/>
<path id="Vector_7" d="M130.565 28.8253C136.699 28.8253 140.496 25.5237 140.496 20.1904V7.59358H135.2V19.8095C135.2 22.3618 133.511 23.8221 130.565 23.8221C127.619 23.8221 125.918 22.3618 125.918 19.8095V7.59358H120.623V20.1904C120.623 25.5237 124.432 28.8253 130.565 28.8253Z" fill="var(--fill-0, #EC1B23)"/>
<path id="Vector_8" d="M163.352 22.3999C163.352 20.711 162.654 19.1745 161.397 18.0825L160.825 17.5872L161.308 17.0031C162.121 15.9999 162.552 14.7682 162.552 13.4349C162.552 10.1079 159.822 7.60629 156.191 7.60629H143.759V28.4063H156.648C160.533 28.3809 163.352 25.8539 163.352 22.3999ZM149.054 12.2666H155.619C156.686 12.2666 157.244 13.1047 157.244 13.9301C157.244 14.9587 156.571 15.6825 155.619 15.6825H149.054V12.2666ZM156.343 23.7206H149.054V20.1396H156.343C157.359 20.1396 158.121 20.8888 158.121 21.8793C158.121 22.946 157.371 23.7206 156.343 23.7206Z" fill="var(--fill-0, #EC1B23)"/>
</g>
<defs>
<clipPath id="clip0_0_1030">
<rect width="171.162" height="36" fill="white"/>
</clipPath>
</defs>
</svg>
