<svg preserveAspectRatio="none" width="100%" height="100%" overflow="visible" style="display: block;" viewBox="0 0 30.9431 38.3126" fill="none" xmlns="http://www.w3.org/2000/svg">
<g id="Group 1171285125">
<path id="Vector" d="M15.4717 1C16.0773 1.00007 16.5683 1.49097 16.5684 2.09668V4.28027L17.3926 4.42773C19.6163 4.82481 21.6065 5.90078 23.1416 7.43555C25.1055 9.39977 26.3193 12.1099 26.3193 15.1055V22.71C26.3194 25.4231 27.5569 27.9882 29.6807 29.6768V29.6777C29.7632 29.7434 29.8292 29.8257 29.874 29.918V29.9189C29.9189 30.0122 29.9434 30.1146 29.9434 30.2197C29.9434 30.6021 29.6333 30.912 29.251 30.9121H1.69238C1.31004 30.9121 1 30.6021 1 30.2197C1.00001 30.1145 1.02432 30.0114 1.06934 29.918L1.06836 29.917C1.10191 29.8481 1.14813 29.7854 1.20312 29.7305L1.26172 29.6777C2.19101 28.9391 2.95117 28.0323 3.51172 27.0186L3.73926 26.5781C4.31424 25.3866 4.62401 24.0669 4.62402 22.71V15.1846C4.62402 9.86424 8.49707 5.35507 13.5547 4.43164L14.375 4.28125V2.09668C14.375 1.4909 14.866 1 15.4717 1Z" stroke="var(--stroke-0, #333333)" stroke-width="1.99995"/>
<path id="Vector_2" d="M18.9667 34.6145C18.4661 36.0634 17.0907 37.1047 15.4716 37.1047C13.8525 37.1047 12.4772 36.0634 11.9765 34.6145H18.9667Z" stroke="var(--stroke-0, #333333)" stroke-width="2.41628"/>
</g>
</svg>
