<svg preserveAspectRatio="none" width="100%" height="100%" overflow="visible" style="display: block;" viewBox="0 0 48 48" fill="none" xmlns="http://www.w3.org/2000/svg">
<g id="Frame">
<path id="Vector" d="M24 4C12.9543 4 4 12.9543 4 24C4 35.0456 12.9543 44 24 44C35.0456 44 44 35.0456 44 24C44 12.9543 35.0456 4 24 4Z" stroke="var(--stroke-0, #333333)" stroke-width="2" stroke-linecap="round" stroke-linejoin="round"/>
<path id="Vector_2" d="M8.542 36.6914C8.542 36.6914 13 31 24 31C35 31 39.4582 36.6914 39.4582 36.6914" stroke="var(--stroke-0, #333333)" stroke-width="2" stroke-linecap="round" stroke-linejoin="round"/>
<path id="Vector_3" d="M24 24C27.3138 24 30 21.3138 30 18C30 14.6863 27.3138 12 24 12C20.6862 12 18 14.6863 18 18C18 21.3138 20.6862 24 24 24Z" stroke="var(--stroke-0, #333333)" stroke-width="2" stroke-linecap="round" stroke-linejoin="round"/>
</g>
</svg>
