<svg preserveAspectRatio="none" width="100%" height="100%" overflow="visible" style="display: block;" viewBox="0 0 23.233 23.2333" fill="none" xmlns="http://www.w3.org/2000/svg">
<path id="Vector" d="M2 9.49867C2 5.36267 5.364 2 9.5 2C13.636 2 17 5.36267 17 9.49867C17 13.6347 13.636 17 9.5 17C5.364 17 2 13.6347 2 9.49867ZM22.94 21.5267L16.884 15.4693C18.2053 13.836 19 11.7587 19 9.49867C19 4.26 14.7387 0 9.5 0C4.26133 0 0 4.26 0 9.49867C0 14.7373 4.26133 19 9.5 19C11.7587 19 13.8373 18.204 15.4693 16.8827L21.5267 22.94C21.7213 23.136 21.9773 23.2333 22.2333 23.2333C22.4893 23.2333 22.7453 23.136 22.94 22.94C23.3307 22.5493 23.3307 21.916 22.94 21.5267Z" fill="var(--fill-0, #333333)"/>
</svg>
