<svg width="49" height="49" viewBox="0 0 49 49" fill="none" xmlns="http://www.w3.org/2000/svg">
<path d="M24.0293 4C12.9836 4 4.0293 12.9543 4.0293 24C4.0293 35.0456 12.9836 44 24.0293 44C35.0749 44 44.0293 35.0456 44.0293 24C44.0293 12.9543 35.0749 4 24.0293 4Z" stroke="#333333" stroke-width="2" stroke-linecap="round" stroke-linejoin="round"/>
<path d="M8.57227 36.6914C8.57227 36.6914 13.0303 31 24.0303 31C35.0303 31 39.4885 36.6914 39.4885 36.6914" stroke="#333333" stroke-width="2" stroke-linecap="round" stroke-linejoin="round"/>
<path d="M24.0293 24C27.3431 24 30.0293 21.3138 30.0293 18C30.0293 14.6863 27.3431 12 24.0293 12C20.7155 12 18.0293 14.6863 18.0293 18C18.0293 21.3138 20.7155 24 24.0293 24Z" stroke="#333333" stroke-width="2" stroke-linecap="round" stroke-linejoin="round"/>
</svg>
